<svg xmlns="http://www.w3.org/2000/svg" xmlns:xlink="http://www.w3.org/1999/xlink" width="500" zoomAndPan="magnify" viewBox="0 0 375 374.999991" height="500" preserveAspectRatio="xMidYMid meet" version="1.0"><defs><g/></defs><rect x="-37.5" width="450" fill="#ffffff" y="-37.499999" height="449.999989" fill-opacity="1"/><rect x="-37.5" width="450" fill="#ffffff" y="-37.499999" height="449.999989" fill-opacity="1"/><rect x="-37.5" width="450" fill="#e1364a" y="-37.499999" height="449.999989" fill-opacity="1"/><g fill="#ffffff" fill-opacity="0.4"><g transform="translate(122.516802, 283.978901)"><g><path d="M 92.53125 0 L 92.53125 -67.4375 C 92.53125 -84.019531 87.625 -92.3125 77.8125 -92.3125 C 70.820312 -92.3125 65.671875 -89.382812 62.359375 -83.53125 C 59.054688 -77.675781 57.40625 -67.945312 57.40625 -54.34375 L 57.40625 0 L 14.734375 0 L 14.734375 -169.796875 L 57.40625 -169.796875 L 57.40625 -145.671875 C 57.40625 -134.765625 56.820312 -122.328125 55.65625 -108.359375 L 57.609375 -108.359375 C 61.691406 -114.765625 66.53125 -119.273438 72.125 -121.890625 C 77.726562 -124.503906 84.238281 -125.8125 91.65625 -125.8125 C 105.476562 -125.8125 116.226562 -121.828125 123.90625 -113.859375 C 131.582031 -105.898438 135.421875 -94.753906 135.421875 -80.421875 L 135.421875 0 Z M 92.53125 0 "/></g></g></g><g fill="#ffffff" fill-opacity="1"><g transform="translate(112.639891, 274.101987)"><g><path d="M 92.53125 0 L 92.53125 -67.4375 C 92.53125 -84.019531 87.625 -92.3125 77.8125 -92.3125 C 70.820312 -92.3125 65.671875 -89.382812 62.359375 -83.53125 C 59.054688 -77.675781 57.40625 -67.945312 57.40625 -54.34375 L 57.40625 0 L 14.734375 0 L 14.734375 -169.796875 L 57.40625 -169.796875 L 57.40625 -145.671875 C 57.40625 -134.765625 56.820312 -122.328125 55.65625 -108.359375 L 57.609375 -108.359375 C 61.691406 -114.765625 66.53125 -119.273438 72.125 -121.890625 C 77.726562 -124.503906 84.238281 -125.8125 91.65625 -125.8125 C 105.476562 -125.8125 116.226562 -121.828125 123.90625 -113.859375 C 131.582031 -105.898438 135.421875 -94.753906 135.421875 -80.421875 L 135.421875 0 Z M 92.53125 0 "/></g></g></g></svg>